<svg xmlns="http://www.w3.org/2000/svg" viewBox="0 0 640 640" role="img" aria-labelledby="title desc">
  <title id="title">EPM Burst Icon</title>
  <desc id="desc">Layered orange burst mark for Jira Execution Planner.</desc>
  <rect width="640" height="640" fill="#ebebeb"/>
  <g transform="translate(320 320)">
    <polygon
      fill="#ff5600"
      points="0,-270 42,-194 117,-243 126,-156 206,-187 172,-107 257,-117 186,-65 270,0 186,65 257,117 172,107 206,187 126,156 117,243 42,194 0,270 -42,194 -117,243 -126,156 -206,187 -172,107 -257,117 -186,65 -270,0 -186,-65 -257,-117 -172,-107 -206,-187 -126,-156 -117,-243 -42,-194"
    />
    <polygon
      fill="#eb4d00"
      fill-opacity="0.86"
      points="0,-214 36,-154 92,-192 103,-120 165,-149 136,-84 200,-92 146,-48 214,0 146,48 200,92 136,84 165,149 103,120 92,192 36,154 0,214 -36,154 -92,192 -103,120 -165,149 -136,84 -200,92 -146,48 -214,0 -146,-48 -200,-92 -136,-84 -165,-149 -103,-120 -92,-192 -36,-154"
    />
    <polygon
      fill="#db4700"
      fill-opacity="0.9"
      points="0,-126 22,-90 56,-113 62,-70 98,-87 81,-49 118,-54 86,-29 126,0 86,29 118,54 81,49 98,87 62,70 56,113 22,90 0,126 -22,90 -56,113 -62,70 -98,87 -81,49 -118,54 -86,29 -126,0 -86,-29 -118,-54 -81,-49 -98,-87 -62,-70 -56,-113 -22,-90"
    />
    <circle cx="0" cy="0" r="20" fill="#c74000"/>
  </g>
</svg>
