<svg xmlns="http://www.w3.org/2000/svg" viewBox="0 0 640 640" role="img" aria-labelledby="title desc">
  <title id="title">EPM Burst Icon</title>
  <desc id="desc">Layered orange burst mark with evenly spaced peaks.</desc>
  <g transform="translate(320 320)">
    <polygon fill="#ff5600" points="0.0,-270.0 24.5,-186.4 69.9,-260.8 71.9,-173.7 135.0,-233.8 114.4,-149.2 190.9,-190.9 149.2,-114.4 233.8,-135.0 173.7,-71.9 260.8,-69.9 186.4,-24.5 270.0,0.0 186.4,24.5 260.8,69.9 173.7,71.9 233.8,135.0 149.2,114.4 190.9,190.9 114.4,149.2 135.0,233.8 71.9,173.7 69.9,260.8 24.5,186.4 0.0,270.0 -24.5,186.4 -69.9,260.8 -71.9,173.7 -135.0,233.8 -114.4,149.2 -190.9,190.9 -149.2,114.4 -233.8,135.0 -173.7,71.9 -260.8,69.9 -186.4,24.5 -270.0,0.0 -186.4,-24.5 -260.8,-69.9 -173.7,-71.9 -233.8,-135.0 -149.2,-114.4 -190.9,-190.9 -114.4,-149.2 -135.0,-233.8 -71.9,-173.7 -69.9,-260.8 -24.5,-186.4"/>
    <polygon fill="#eb4d00" fill-opacity="0.86" points="0.0,-212.0 19.3,-146.7 54.9,-204.8 56.6,-136.7 106.0,-183.6 90.1,-117.4 149.9,-149.9 117.4,-90.1 183.6,-106.0 136.7,-56.6 204.8,-54.9 146.7,-19.3 212.0,0.0 146.7,19.3 204.8,54.9 136.7,56.6 183.6,106.0 117.4,90.1 149.9,149.9 90.1,117.4 106.0,183.6 56.6,136.7 54.9,204.8 19.3,146.7 0.0,212.0 -19.3,146.7 -54.9,204.8 -56.6,136.7 -106.0,183.6 -90.1,117.4 -149.9,149.9 -117.4,90.1 -183.6,106.0 -136.7,56.6 -204.8,54.9 -146.7,19.3 -212.0,0.0 -146.7,-19.3 -204.8,-54.9 -136.7,-56.6 -183.6,-106.0 -117.4,-90.1 -149.9,-149.9 -90.1,-117.4 -106.0,-183.6 -56.6,-136.7 -54.9,-204.8 -19.3,-146.7"/>
    <polygon fill="#db4700" fill-opacity="0.9" points="0.0,-126.0 11.5,-87.2 32.6,-121.7 33.7,-81.3 63.0,-109.1 53.6,-69.8 89.1,-89.1 69.8,-53.6 109.1,-63.0 81.3,-33.7 121.7,-32.6 87.2,-11.5 126.0,0.0 87.2,11.5 121.7,32.6 81.3,33.7 109.1,63.0 69.8,53.6 89.1,89.1 53.6,69.8 63.0,109.1 33.7,81.3 32.6,121.7 11.5,87.2 0.0,126.0 -11.5,87.2 -32.6,121.7 -33.7,81.3 -63.0,109.1 -53.6,69.8 -89.1,89.1 -69.8,53.6 -109.1,63.0 -81.3,33.7 -121.7,32.6 -87.2,11.5 -126.0,0.0 -87.2,-11.5 -121.7,-32.6 -81.3,-33.7 -109.1,-63.0 -69.8,-53.6 -89.1,-89.1 -53.6,-69.8 -63.0,-109.1 -33.7,-81.3 -32.6,-121.7 -11.5,-87.2"/>
    <polygon fill="#c74000" points="0.0,-42.0 3.9,-29.7 10.9,-40.6 11.5,-27.7 21.0,-36.4 18.3,-23.8 29.7,-29.7 23.8,-18.3 36.4,-21.0 27.7,-11.5 40.6,-10.9 29.7,-3.9 42.0,0.0 29.7,3.9 40.6,10.9 27.7,11.5 36.4,21.0 23.8,18.3 29.7,29.7 18.3,23.8 21.0,36.4 11.5,27.7 10.9,40.6 3.9,29.7 0.0,42.0 -3.9,29.7 -10.9,40.6 -11.5,27.7 -21.0,36.4 -18.3,23.8 -29.7,29.7 -23.8,18.3 -36.4,21.0 -27.7,11.5 -40.6,10.9 -29.7,3.9 -42.0,0.0 -29.7,-3.9 -40.6,-10.9 -27.7,-11.5 -36.4,-21.0 -23.8,-18.3 -29.7,-29.7 -18.3,-23.8 -21.0,-36.4 -11.5,-27.7 -10.9,-40.6 -3.9,-29.7"/>
  </g>
</svg>
